<svg xmlns="http://www.w3.org/2000/svg" xmlns:xlink="http://www.w3.org/1999/xlink"><defs><symbol viewBox="0 0 21 20" id="ic-poa-bank"><g fill="none" fill-rule="evenodd"><path d="M0-2h24v24H0z" /><path fill="#E0F4F3" d="M9.318 1.054a2 2 0 012.147 0l9.202 5.856a.25.25 0 01-.134.46h-2.642v10h1.5v2h-19v-2h1.5v-10H.25a.25.25 0 01-.17-.067l-.04-.048a.25.25 0 01.076-.345zM6.89 7.37h-3v10h3v-10zm4 0h-2v10h2v-10zm5 0h-3v10h3v-10z" /></g></symbol><symbol viewBox="0 0 128 124" id="ic-poa-checked"><g fill="none" fill-rule="evenodd"><path fill="#E2F1F1" fill-rule="nonzero" d="M97.555 124H9.458c-5.217-.015-9.443-4.246-9.458-9.47V9.47C.015 4.245 4.24.014 9.458 0h74.847L107 22.734v91.797c-.022 5.215-4.236 9.44-9.445 9.469z" /><rect width="79" height="7" x="14" y="39" fill="#FFF" fill-rule="nonzero" rx="2.96" /><rect width="79" height="7" x="14" y="55" fill="#FFF" fill-rule="nonzero" rx="2.96" /><rect width="43" height="7" x="14" y="71" fill="#FFF" fill-rule="nonzero" rx="2.96" /><g transform="translate(84 75)"><circle cx="22.051" cy="22.051" r="21.949" fill="#4BB4B3" /><path stroke="#FFF" stroke-linecap="round" stroke-linejoin="round" stroke-width="2" d="M14.735 23.34l5.781 4.728 9.66-11.87" /></g><path fill="#BCCDCF" fill-rule="nonzero" d="M108 23H94.605c-5.294-.015-9.583-4.3-9.605-9.597V0l23 23z" /></g></symbol><symbol viewBox="0 0 22 13" id="ic-poa-clear-photo"><g fill="none" fill-rule="evenodd"><path d="M0-6h24v24H0z" /><path fill="#C7E5E5" fill-rule="nonzero" d="M21.692 5.71C21.502 5.476 16.89 0 10.989 0 5.087 0 .476 5.475.286 5.71a1.233 1.233 0 000 1.58C.476 7.524 5.087 13 10.989 13c5.902 0 10.513-5.475 10.703-5.66.41-.461.41-1.168 0-1.63zm-8.903-2.419a.992.992 0 011.24.564 1.043 1.043 0 01-.2 1.374.992.992 0 01-1.24-.564 1.043 1.043 0 01.2-1.374zm-1.8 7.72c-4.121 0-7.582-3.24-8.783-4.511a16.51 16.51 0 015.002-3.67 4.697 4.697 0 00.202 5.352c1.178 1.557 3.19 2.173 5.008 1.533 1.817-.64 3.036-2.394 3.032-4.363 0-.897-.257-1.775-.74-2.522a16.58 16.58 0 015.001 3.67c-1.13 1.271-4.6 4.511-8.722 4.511z" /></g></symbol><symbol viewBox="0 0 49 32" id="ic-poa-cloud-upload"><g fill="#EC3F3F" fill-rule="evenodd"><path d="M31.789 23.697a.775.775 0 101.096-1.1L24.8 14.484l-.002-.001-.546-.55-.547.55-.001.001L15.62 22.6a.78.78 0 000 1.099.772.772 0 001.095 0l6.764-6.79V30.6c0 .43.347.777.774.777a.776.776 0 00.774-.777V16.908l6.762 6.79z" /><path d="M39.448 9.482C37.542 4.1 32.51.515 26.78.515c-5.4 0-10.257 3.261-12.358 8.204-.99-.46-2.065-.7-3.158-.7-4.165 0-7.555 3.399-7.563 7.578a8.823 8.823 0 00-3.448 6.995c0 4.844 3.936 8.784 8.902 8.786l.162.001c.052 0 .099 0 .136-.003h8.159a.776.776 0 00.774-.777.776.776 0 00-.774-.777h-8.2c-.075.005-.155.002-.23 0l-.158-.001c-3.982 0-7.222-3.243-7.222-7.23a7.263 7.263 0 013.13-5.972l.356-.356-.039-.65c0-3.329 2.699-6.038 6.015-6.038a5.98 5.98 0 013.156.906l.82.51.318-.914c1.669-4.79 6.177-8.005 11.223-8.005 5.208 0 9.766 3.346 11.34 8.33l.144.455.47.076c4.614.75 7.965 4.697 7.965 9.389 0 5.24-4.256 9.501-9.486 9.501H30.89a.776.776 0 00-.774.778c0 .428.347.777.774.777h6.324c6.084 0 11.034-4.96 11.034-11.057-.002-5.3-3.675-9.785-8.801-10.839z" /></g></symbol><symbol viewBox="0 0 124 120" id="ic-poa-error"><g fill="none" fill-rule="evenodd"><path fill="#E2F1F1" fill-rule="nonzero" d="M94.82 120H9.193c-5.071-.014-9.179-4.109-9.193-9.164V9.164C.014 4.109 4.122.014 9.193 0h72.749L104 22v88.836c-.021 5.048-4.117 9.136-9.18 9.164z" /><rect width="77" height="7" x="13" y="38" fill="#FFF" fill-rule="nonzero" rx="2.96" /><rect width="77" height="7" x="13" y="53" fill="#FFF" fill-rule="nonzero" rx="2.96" /><rect width="42" height="7" x="13" y="69" fill="#FFF" fill-rule="nonzero" rx="2.96" /><g transform="translate(81 72)"><circle cx="21.55" cy="21.55" r="21.45" fill="#EC3F3F" /><path fill="#FFF" d="M24.338 27h-4.676L19 8h6l-.662 19zm-2.347 3c.904 0 1.631.282 2.182.846.551.564.827 1.285.827 2.164 0 .865-.276 1.58-.827 2.144-.55.564-1.278.846-2.182.846-.892 0-1.613-.282-2.164-.846-.551-.564-.827-1.279-.827-2.144 0-.866.276-1.584.827-2.154.55-.57 1.272-.856 2.164-.856z" /></g><path fill="#BCCDCF" fill-rule="nonzero" d="M104 22H91.187c-5.063-.014-9.166-4.114-9.187-9.18V0l22 22z" /></g></symbol><symbol viewBox="0 0 20 20" id="ic-poa-issued-under"><g fill="none"><circle cx="9.83" cy="9.83" r="9.83" fill="#E0F4F3" /><path fill="#C7E5E5" d="M15.002 14.72v1.55h-10v-1.55A5.16 5.16 0 017.812 10a2.56 2.56 0 002.19.8 2.74 2.74 0 002.25-.77 5.15 5.15 0 012.75 4.69zM10.007 4a3 3 0 11-.014 6 3 3 0 01.014-6z" /></g></symbol><symbol viewBox="0 0 22 18" id="ic-poa-less-than-eight"><g fill="#C7E5E5"><path d="M9.02 17.59a1.17 1.17 0 01-.74-.27l-7-5.75A3.46 3.46 0 010 8.88a3.49 3.49 0 011.28-2.7l7-5.75a1.162 1.162 0 011.47 1.8l-7 5.75c-.272.22-.43.55-.43.9 0 .347.159.674.43.89l7 5.75a1.17 1.17 0 01-.73 2.07z" /><path d="M10.18 11.81a3.88 3.88 0 013.18-3.91v-.18a3.76 3.76 0 01-2.7-3.66c0-2.43 1.9-4.06 5.2-4.06 3.3 0 5.2 1.63 5.2 4.06a3.76 3.76 0 01-2.7 3.66v.18a3.88 3.88 0 013.18 3.91c0 2.62-2 4.59-5.68 4.59-3.68 0-5.68-1.97-5.68-4.59zm8.68 0v-.46c0-1.57-1.09-2.5-3-2.5s-3 .93-3 2.5v.46c0 1.56 1.09 2.5 3 2.5s3-.91 3-2.47v-.03zm-.32-7.13v-.39c0-1.43-.93-2.17-2.68-2.17s-2.7.79-2.7 2.22v.39c0 1.43 1 2.23 2.7 2.23 1.7 0 2.68-.84 2.68-2.28z" /></g></symbol><symbol viewBox="0 0 115 123" id="ic-poa-limited-access"><g fill="none" fill-rule="evenodd" transform="translate(-13 -5)"><path fill="#E0F0F0" fill-rule="nonzero" d="M105 123H23c-5.523 0-10-4.477-10-10V15c0-5.523 4.477-10 10-10h70.37L115 26.64V113c0 5.523-4.477 10-10 10z" /><rect width="75.76" height="6.68" x="26.12" y="42.65" fill="#FFF" fill-rule="nonzero" rx="3" /><rect width="75.76" height="6.68" x="26.12" y="56.98" fill="#FFF" fill-rule="nonzero" rx="3" /><rect width="41.11" height="6.68" x="26.12" y="73.3" fill="#FFF" fill-rule="nonzero" rx="3" /><path fill="#BBCCCE" fill-rule="nonzero" d="M115 26.65h-11.62c-5.523 0-10-4.477-10-10V5L115 26.65z" /><path d="M0 0h128v128H0z" /><path fill="#FF444F" fill-rule="nonzero" d="M128 98.41H88.49a3.85 3.85 0 013.85-3.86h31.81a3.86 3.86 0 013.85 3.83v.03zm-39.51 25.7H128a3.86 3.86 0 01-3.85 3.85H92.34a3.85 3.85 0 01-3.85-3.85zm0-25.7H128v25.69H88.49z" /><path fill="#FFF" fill-rule="nonzero" d="M111.67 117.81l-1.93-7.67a3.61 3.61 0 002.09-3.88 3.63 3.63 0 00-7.22.58 3.62 3.62 0 002.14 3.3l-1.93 7.67a1.2 1.2 0 001.16 1.5h4.52a1.21 1.21 0 001.17-1.5z" /><path fill="#FF444F" fill-rule="nonzero" d="M123.93 94.52h-4.86V92a10.37 10.37 0 00-10.42-10.42h-.27A10.37 10.37 0 0098 92v2.54h-4.89V92c.011-8.429 6.841-15.259 15.27-15.27h.27c8.433.006 15.269 6.837 15.28 15.27v2.52z" /></g></symbol><symbol viewBox="0 0 22 22" id="ic-poa-one-to-six-months"><g fill="none" fill-rule="evenodd"><path d="M0-1h24v24H0z" /><path fill="#C7E5E5" fill-rule="nonzero" d="M10.71 0C4.795 0 0 4.795 0 10.71c0 5.915 4.795 10.71 10.71 10.71 5.915 0 10.71-4.795 10.71-10.71C21.414 4.797 16.623.006 10.71 0zm0 19.17a8.46 8.46 0 118.46-8.46 8.47 8.47 0 01-8.46 8.46z" /><path fill="#C7E5E5" fill-rule="nonzero" d="M16.599 10.33h-4.18a1.78 1.78 0 00-.61-.61v-5a1 1 0 00-1.92 0v5a1.84 1.84 0 102.53 2.52h4.18a1 1 0 100-1.91z" /></g></symbol><symbol viewBox="0 0 124 120" id="ic-poa-reupload"><g fill="none" fill-rule="evenodd"><path fill="#E2F1F1" fill-rule="nonzero" d="M94.82 120H9.193c-5.071-.014-9.179-4.109-9.193-9.164V9.164C.014 4.109 4.122.014 9.193 0h72.749L104 22v88.836c-.021 5.048-4.117 9.136-9.18 9.164z" /><rect width="77" height="7" x="13" y="38" fill="#FFF" fill-rule="nonzero" rx="2.96" /><rect width="77" height="7" x="13" y="53" fill="#FFF" fill-rule="nonzero" rx="2.96" /><rect width="42" height="7" x="13" y="69" fill="#FFF" fill-rule="nonzero" rx="2.96" /><g transform="translate(81 72)"><circle cx="21.55" cy="21.55" r="21.45" fill="#FF6444" /><path fill="#FFF" d="M33.43 21.218L23.402 10.603A1.852 1.852 0 0022 10c-.565 0-1.027.201-1.386.603L10.585 21.218c-.39.413-.585.907-.585 1.483 0 .566.195 1.055.585 1.468l1.156 1.222c.37.413.832.62 1.386.62.555 0 1.017-.207 1.386-.62l4.53-4.777v11.479c0 .564.192 1.024.577 1.377.385.354.85.53 1.394.53h1.972a1.99 1.99 0 001.394-.53c.385-.353.578-.813.578-1.377V20.614l4.529 4.777c.37.413.831.62 1.386.62.544 0 1.012-.207 1.402-.62l1.155-1.222c.38-.424.57-.913.57-1.468 0-.565-.19-1.06-.57-1.483z" /></g><path fill="#BCCDCF" fill-rule="nonzero" d="M104 22H91.187c-5.063-.014-9.166-4.114-9.187-9.18V0l22 22z" /></g></symbol><symbol viewBox="0 0 123 123" id="ic-poa-unsaved-changes"><g fill="none" fill-rule="evenodd" transform="translate(-5 -5)"><path fill="#E0F0F0" fill-rule="nonzero" d="M5 32.6V113c0 5.523 4.477 10 10 10h98.05c5.523 0 10-4.477 10-10V15c0-5.523-4.477-10-10-10H32.61c-.795 0-1.558.317-2.12.88L5.88 30.47A3 3 0 005 32.6z" /><path fill="#84ABAE" fill-rule="nonzero" d="M44.23 5h60.07v37.39a3 3 0 01-3 3H47.23a3 3 0 01-3-3V5z" /><path fill="#C6E4E4" fill-rule="nonzero" d="M27.68 62.2h73.62a3 3 0 013 3V123H24.68V65.2a3 3 0 013-3z" /><rect width="10.94" height="26.81" x="84.05" y="11.08" fill="#E0F0F0" fill-rule="nonzero" rx="3" /><ellipse cx="104.99" cy="105" fill="#FF444F" fill-rule="nonzero" rx="23.01" ry="23" /><path fill="#FFF" fill-rule="nonzero" d="M96 115a1.06 1.06 0 01-.75-1.81l18-18a1.06 1.06 0 011.5 1.5l-18 18a1.1 1.1 0 01-.75.31z" /><path fill="#FFF" fill-rule="nonzero" d="M114 115a1.1 1.1 0 01-.75-.31l-18-18a1.05 1.05 0 010-1.5 1.07 1.07 0 011.5 0l18 18a1.07 1.07 0 010 1.5 1.1 1.1 0 01-.75.31z" /><path d="M0 0h128v128H0z" /></g></symbol><symbol viewBox="0 0 17 21" id="ic-poa-utility"><g fill="none" fill-rule="evenodd" transform="translate(0 -2)"><path d="M0 0h24v24H0z" /><rect width="17" height="21" y="2" fill="#E0F4F3" rx="2" /><rect width="11" height="1.5" x="2" y="5" fill="#FFF" rx=".75" /><rect width="11" height="1.5" x="2" y="9" fill="#FFF" rx=".75" /><rect width="11" height="1.5" x="2" y="13" fill="#FFF" rx=".75" /></g></symbol><symbol viewBox="0 0 115 123" id="ic-poi-checked"><g fill="none" fill-rule="evenodd"><path fill="#C6E4E4" fill-rule="nonzero" d="M85.29 117.37H18.71c-5.92 0-10.71-4.48-10.71-10V10.49c0-5.52 4.79-10 10.71-10h66.58a8.1 8.1 0 018.36 7.81v101.25a8.11 8.11 0 01-8.36 7.82z" /><path fill="#FFF" fill-rule="nonzero" d="M53.65 19.43c-10.908 0-19.75 8.842-19.75 19.75s8.842 19.75 19.75 19.75S73.4 50.088 73.4 39.18a19.75 19.75 0 00-19.75-19.75zm-18 20.28h7.83c.01 3.184.46 6.35 1.34 9.41h-6.2a18 18 0 01-3-9.41h.03zm18.84-12.78v-5.72c2.09.45 4 2.58 5.36 5.72h-5.36zm6 1.68A32.25 32.25 0 0162.16 38h-7.67v-9.39h6zm-7.71-7.4v5.72h-5.33c1.38-3.14 3.27-5.27 5.36-5.72h-.03zm0 7.4V38h-7.64a32.07 32.07 0 011.64-9.41l6 .02zM43.45 38h-7.8A18 18 0 0139 28.61h6A33.62 33.62 0 0043.45 38zm1.67 1.69h7.69v9.41h-6.24a33.21 33.21 0 01-1.45-9.39v-.02zm7.69 11.11v6.35c-2.23-.49-4.23-2.87-5.63-6.35h5.63zm1.68 6.35V50.8h5.63c-1.4 3.48-3.4 5.86-5.63 6.35zm0-8v-9.44h7.69a33 33 0 01-1.45 9.41l-6.24.03zm9.37-9.41h7.83a17.92 17.92 0 01-3 9.41h-6.2a34.7 34.7 0 001.37-9.44v.03zm0-1.69a34.53 34.53 0 00-1.52-9.41h5.94A18 18 0 0171.66 38l-7.8.05zm3-11.09h-5.14a16.29 16.29 0 00-3.13-5.11 18 18 0 018.29 5.08l-.02.03zm-18.15-5.14a16.29 16.29 0 00-3.13 5.11h-5.16a18 18 0 018.29-5.11zm-8.87 29h5.5a16.73 16.73 0 003.37 5.74 18.06 18.06 0 01-8.87-5.76v.02zm18.75 5.74A16.82 16.82 0 0062 50.8h5.5a18.07 18.07 0 01-8.91 5.74v.02z" /><rect width="61.09" height="10.48" x="23.38" y="75.41" fill="#FFF" fill-rule="nonzero" rx="4.17" /><rect width="100.94" height="61.52" x=".56" y="47.98" fill="#FFF" fill-rule="nonzero" rx="5.5" /><path fill="#F2F2F2" fill-rule="nonzero" d="M96 48.48a5 5 0 015 5V104a5 5 0 01-5 5H6.06a5 5 0 01-5-5V53.48a5 5 0 015-5H96zm0-1H6.06a6 6 0 00-6 6V104a6 6 0 006 6H96a6 6 0 006-6V53.48a6 6 0 00-6-6z" /><rect width="33.04" height="41.17" x="8.87" y="58.24" fill="#F2F2F2" fill-rule="nonzero" rx="3" /><rect width="33.27" height="5.05" x="51.03" y="67.37" fill="#E3E4E3" fill-rule="nonzero" rx="1.55" /><rect width="33.27" height="4.38" x="51.03" y="76.63" fill="#E3E4E3" fill-rule="nonzero" rx="1.35" /><rect width="33.27" height="4.38" x="51.03" y="85.56" fill="#E3E4E3" fill-rule="nonzero" rx="1.35" /><circle cx="25.45" cy="72.02" r="6.77" fill="#84ABAE" fill-rule="nonzero" /><path fill="#84ABAE" fill-rule="nonzero" d="M20 79.07S21.48 81 25.45 81s5.27-1.93 5.27-1.93 6.06 2.33 6.06 8.7c0 0-3.14 4.63-11.14 4.63S14 87.77 14 87.77s.19-6.86 6-8.7z" /><g transform="translate(68 77)"><ellipse cx="23.99" cy="23" fill="#4BB4B3" rx="23.01" ry="23" /><path fill="#FFF" fill-rule="nonzero" d="M22.38 30.38a1.09 1.09 0 01-.68-.24l-6.06-5a1.09 1.09 0 01-.15-1.51 1.07 1.07 0 011.51-.15l5.23 4.28 9.45-11.61a1.07 1.07 0 111.66 1.35L23.22 30a1.08 1.08 0 01-.73.39l-.11-.01z" /></g></g></symbol><symbol viewBox="0 0 90 90" id="ic-poi-driving-licence"><g fill="none" fill-rule="evenodd" transform="translate(-3 -3)"><circle cx="48" cy="48" r="44.25" fill="#E1F4F3" fill-rule="nonzero" /><rect width="68.332" height="41.355" x="13.838" y="27.323" fill="#FFFDFF" fill-rule="nonzero" rx="2.625" /><path fill="#F2F2F2" fill-rule="nonzero" d="M79.545 27.698a2.25 2.25 0 012.25 2.25v36.104a2.25 2.25 0 01-2.25 2.25H16.5a2.25 2.25 0 01-2.25-2.25V29.947a2.25 2.25 0 012.25-2.25h63.082-.037zm.037-.75H16.5a3 3 0 00-3 3v36.104a3 3 0 003 3h63.082a3 3 0 003-3V29.947a3 3 0 00-3-3z" /><path fill="#F2F2F2" fill-rule="nonzero" d="M23.108 35.737h27.99c1.71 0 3.105.803 3.105 1.785v20.91c0 .983-1.396 1.778-3.106 1.778h-27.99c-1.717 0-3.104-.795-3.104-1.778V37.5c0-.96 1.387-1.763 3.105-1.763z" /><rect width="20.453" height="3.862" x="57.142" y="53.347" fill="#E3E4E3" fill-rule="nonzero" rx="1.931" /><rect width="20.453" height="3.862" x="57.142" y="46.042" fill="#E3E4E3" fill-rule="nonzero" rx="1.931" /><rect width="20.453" height="3.862" x="57.142" y="38.737" fill="#E3E4E3" fill-rule="nonzero" rx="1.931" /><path fill="#84ABAE" fill-rule="nonzero" d="M48.375 45.667a.202.202 0 01-.053-.06l-.915-.877c.75-.172 1.568-.802 1.568-1.455 0-.652-1.05-1.02-1.943-1.02-.892 0-1.042.637-1.057 1.095l-2.348-2.25a3.323 3.323 0 00-2.062-.848h-9.15a3.338 3.338 0 00-2.063.848l-2.347 2.25c0-.458-.12-1.095-1.057-1.095-.938 0-1.943.27-1.943 1.02s.81 1.282 1.568 1.455l-.908.878-.052.06A5.1 5.1 0 0024 49.17v3.33a3 3 0 00.832 2.085v1.29a1.388 1.388 0 001.418 1.373h1.703a1.388 1.388 0 001.41-1.373v-.33h15.262v.33a1.388 1.388 0 001.41 1.373h1.703a1.388 1.388 0 001.41-1.373v-1.29a3 3 0 00.832-2.085v-3.33a5.093 5.093 0 00-1.605-3.503zm-17.16-3.577c.347-.27.763-.439 1.2-.488h9.15a2.33 2.33 0 011.2.488l3.082 3H28.14l3.075-3zm-4.725 9.66a1.5 1.5 0 010-3c.795 0 3.383 1.5 3.383 2.34 0 .84-2.588.66-3.383.66zm14.828 1.417H32.67c-.908 0-1.635-1.11-1.635-2.482h11.918c0 1.357-.736 2.468-1.636 2.468v.014zm6.172-1.417c-.75 0-3.375.188-3.375-.63 0-.817 2.587-2.37 3.375-2.37a1.5 1.5 0 010 3z" /><path d="M0 0h96v96H0z" /></g></symbol><symbol viewBox="0 0 115 123" id="ic-poi-error"><g fill="none" fill-rule="evenodd"><path fill="#C6E4E4" fill-rule="nonzero" d="M85.84 117.37H13.65V.49h72.19a7.81 7.81 0 017.81 7.81v101.25a7.83 7.83 0 01-7.81 7.82z" /><path fill="#FFF" fill-rule="nonzero" d="M53.65 19.43c-10.908 0-19.75 8.842-19.75 19.75s8.842 19.75 19.75 19.75S73.4 50.088 73.4 39.18a19.75 19.75 0 00-19.75-19.75zm-18 20.28h7.83c.01 3.184.46 6.35 1.34 9.41h-6.2a18 18 0 01-3-9.41h.03zm18.84-12.78v-5.72c2.09.45 4 2.58 5.36 5.72h-5.36zm6 1.68A32.25 32.25 0 0162.16 38h-7.67v-9.39h6zm-7.71-7.4v5.72h-5.33c1.38-3.14 3.27-5.27 5.36-5.72h-.03zm0 7.4V38h-7.64a32.07 32.07 0 011.64-9.41l6 .02zM43.45 38h-7.8A18 18 0 0139 28.61h6A33.62 33.62 0 0043.45 38zm1.67 1.69h7.69v9.41h-6.24a33.21 33.21 0 01-1.45-9.39v-.02zm7.69 11.11v6.35c-2.23-.49-4.23-2.87-5.63-6.35h5.63zm1.68 6.35V50.8h5.63c-1.4 3.48-3.4 5.86-5.63 6.35zm0-8v-9.44h7.69a33 33 0 01-1.45 9.41l-6.24.03zm9.37-9.41h7.83a17.92 17.92 0 01-3 9.41h-6.2a34.7 34.7 0 001.37-9.44v.03zm0-1.69a34.53 34.53 0 00-1.52-9.41h5.94A18 18 0 0171.66 38l-7.8.05zm3-11.09h-5.14a16.29 16.29 0 00-3.13-5.11 18 18 0 018.29 5.08l-.02.03zm-18.15-5.14a16.29 16.29 0 00-3.13 5.11h-5.16a18 18 0 018.29-5.11zm-8.87 29h5.5a16.73 16.73 0 003.37 5.74 18.06 18.06 0 01-8.87-5.76v.02zm18.75 5.74A16.82 16.82 0 0062 50.8h5.5a18.07 18.07 0 01-8.91 5.74v.02z" /><rect width="61.09" height="10.48" x="23.38" y="75.41" fill="#FFF" fill-rule="nonzero" rx="4.17" /><rect width="100.94" height="61.52" x=".56" y="47.98" fill="#FFF" fill-rule="nonzero" rx="5.5" /><path fill="#F2F2F2" fill-rule="nonzero" d="M96 48.48a5 5 0 015 5V104a5 5 0 01-5 5H6.06a5 5 0 01-5-5V53.48a5 5 0 015-5H96zm0-1H6.06a6 6 0 00-6 6V104a6 6 0 006 6H96a6 6 0 006-6V53.48a6 6 0 00-6-6z" /><rect width="33.04" height="41.17" x="8.87" y="58.24" fill="#F2F2F2" fill-rule="nonzero" rx="3" /><rect width="33.27" height="5.05" x="51.03" y="67.37" fill="#E3E4E3" fill-rule="nonzero" rx="1.55" /><rect width="33.27" height="4.38" x="51.03" y="78.74" fill="#E3E4E3" fill-rule="nonzero" rx="1.35" /><rect width="33.27" height="4.38" x="51.03" y="85.56" fill="#E3E4E3" fill-rule="nonzero" rx="1.35" /><circle cx="25.45" cy="72.02" r="6.77" fill="#84ABAE" fill-rule="nonzero" /><path fill="#84ABAE" fill-rule="nonzero" d="M20 79.07S21.48 81 25.45 81s5.27-1.93 5.27-1.93 6.06 2.33 6.06 8.7c0 0-3.14 4.63-11.14 4.63S14 87.77 14 87.77s.19-6.86 6-8.7z" /><g transform="translate(72 80)"><circle cx="21.55" cy="21.55" r="21.45" fill="#EC3F3F" /><path fill="#FFF" d="M24.338 27h-4.676L19 8h6l-.662 19zm-2.347 3c.904 0 1.631.282 2.182.846.551.564.827 1.285.827 2.164 0 .865-.276 1.58-.827 2.144-.55.564-1.278.846-2.182.846-.892 0-1.613-.282-2.164-.846-.551-.564-.827-1.279-.827-2.144 0-.866.276-1.584.827-2.154.55-.57 1.272-.856 2.164-.856z" /></g></g></symbol><symbol viewBox="0 0 115 123" id="ic-poi-failed"><g fill="none" fill-rule="evenodd"><path fill="#C6E4E4" fill-rule="nonzero" d="M85.84 117.37H13.65V.49h72.19a7.81 7.81 0 017.81 7.81v101.25a7.83 7.83 0 01-7.81 7.82z" /><path fill="#FFF" fill-rule="nonzero" d="M53.65 19.43c-10.908 0-19.75 8.842-19.75 19.75s8.842 19.75 19.75 19.75S73.4 50.088 73.4 39.18a19.75 19.75 0 00-19.75-19.75zm-18 20.28h7.83c.01 3.184.46 6.35 1.34 9.41h-6.2a18 18 0 01-3-9.41h.03zm18.84-12.78v-5.72c2.09.45 4 2.58 5.36 5.72h-5.36zm6 1.68A32.25 32.25 0 0162.16 38h-7.67v-9.39h6zm-7.71-7.4v5.72h-5.33c1.38-3.14 3.27-5.27 5.36-5.72h-.03zm0 7.4V38h-7.64a32.07 32.07 0 011.64-9.41l6 .02zM43.45 38h-7.8A18 18 0 0139 28.61h6A33.62 33.62 0 0043.45 38zm1.67 1.69h7.69v9.41h-6.24a33.21 33.21 0 01-1.45-9.39v-.02zm7.69 11.11v6.35c-2.23-.49-4.23-2.87-5.63-6.35h5.63zm1.68 6.35V50.8h5.63c-1.4 3.48-3.4 5.86-5.63 6.35zm0-8v-9.44h7.69a33 33 0 01-1.45 9.41l-6.24.03zm9.37-9.41h7.83a17.92 17.92 0 01-3 9.41h-6.2a34.7 34.7 0 001.37-9.44v.03zm0-1.69a34.53 34.53 0 00-1.52-9.41h5.94A18 18 0 0171.66 38l-7.8.05zm3-11.09h-5.14a16.29 16.29 0 00-3.13-5.11 18 18 0 018.29 5.08l-.02.03zm-18.15-5.14a16.29 16.29 0 00-3.13 5.11h-5.16a18 18 0 018.29-5.11zm-8.87 29h5.5a16.73 16.73 0 003.37 5.74 18.06 18.06 0 01-8.87-5.76v.02zm18.75 5.74A16.82 16.82 0 0062 50.8h5.5a18.07 18.07 0 01-8.91 5.74v.02z" /><rect width="61.09" height="10.48" x="23.38" y="75.41" fill="#FFF" fill-rule="nonzero" rx="4.17" /><rect width="100.94" height="61.52" x=".56" y="47.98" fill="#FFF" fill-rule="nonzero" rx="5.5" /><path fill="#F2F2F2" fill-rule="nonzero" d="M96 48.48a5 5 0 015 5V104a5 5 0 01-5 5H6.06a5 5 0 01-5-5V53.48a5 5 0 015-5H96zm0-1H6.06a6 6 0 00-6 6V104a6 6 0 006 6H96a6 6 0 006-6V53.48a6 6 0 00-6-6z" /><rect width="33.04" height="41.17" x="8.87" y="58.24" fill="#F2F2F2" fill-rule="nonzero" rx="3" /><rect width="33.27" height="5.05" x="51.03" y="67.37" fill="#E3E4E3" fill-rule="nonzero" rx="1.55" /><rect width="33.27" height="4.38" x="51.03" y="78.74" fill="#E3E4E3" fill-rule="nonzero" rx="1.35" /><rect width="33.27" height="4.38" x="51.03" y="85.56" fill="#E3E4E3" fill-rule="nonzero" rx="1.35" /><circle cx="25.45" cy="72.02" r="6.77" fill="#84ABAE" fill-rule="nonzero" /><path fill="#84ABAE" fill-rule="nonzero" d="M20 79.07S21.48 81 25.45 81s5.27-1.93 5.27-1.93 6.06 2.33 6.06 8.7c0 0-3.14 4.63-11.14 4.63S14 87.77 14 87.77s.19-6.86 6-8.7z" /><g transform="translate(72 80)"><circle cx="21.5" cy="21.5" r="21.5" fill="#EC3F3F" /><path fill="#FFF" d="M15.731 13.831L21.5 19.6l5.769-5.768a1.344 1.344 0 111.9 1.9l-5.77 5.769 5.77 5.769a1.344 1.344 0 11-1.9 1.9l-5.77-5.77-5.768 5.77a1.344 1.344 0 11-1.9-1.9l5.768-5.77-5.768-5.768a1.344 1.344 0 111.9-1.9z" /></g></g></symbol><symbol viewBox="0 0 90 90" id="ic-poi-identity-card"><g fill="none" fill-rule="evenodd" transform="translate(-3 -3)"><circle cx="48" cy="48" r="44.25" fill="#E1F4F3" fill-rule="nonzero" /><rect width="64.882" height="39.248" x="15.563" y="28.372" fill="#FFFDFF" fill-rule="nonzero" rx="2.625" /><path fill="#F2F2F2" fill-rule="nonzero" d="M77.813 28.747a2.25 2.25 0 012.25 2.25v34.005a2.25 2.25 0 01-2.25 2.25H18.187a2.25 2.25 0 01-2.25-2.25V30.998a2.25 2.25 0 012.25-2.25h59.626zm0-.75H18.187a3 3 0 00-3 3v34.005a3 3 0 003 3h59.626a3 3 0 003-3V30.998a3 3 0 00-3-3z" /><rect width="21.345" height="3.862" x="50.992" y="53.37" fill="#E3E4E3" fill-rule="nonzero" rx="1.931" /><rect width="21.345" height="3.862" x="50.992" y="46.065" fill="#E3E4E3" fill-rule="nonzero" rx="1.931" /><rect width="21.345" height="3.862" x="50.992" y="38.767" fill="#E3E4E3" fill-rule="nonzero" rx="1.931" /><path d="M0 0h96v96H0z" /><path fill="#F2F2F2" fill-rule="nonzero" d="M24.12 36h18.525a1.935 1.935 0 012.055 1.785V58.71a1.935 1.935 0 01-2.055 1.785H24.12a1.935 1.935 0 01-2.055-1.785V37.755A1.935 1.935 0 0124.12 36z" /><path fill="#85ACB0" fill-rule="nonzero" d="M32.37 39.435a4.448 4.448 0 015.333 5.34 4.38 4.38 0 01-3.308 3.308 4.44 4.44 0 01-2.025-8.648z" /><path fill="#85ACB0" fill-rule="nonzero" d="M29.872 48.383s.976 1.26 3.57 1.26c2.596 0 3.428-1.26 3.428-1.26s3.968 1.5 3.968 5.7c0 0-2.056 3-7.29 3-5.236 0-7.62-3-7.62-3s.142-4.5 3.944-5.7z" /></g></symbol><symbol viewBox="0 0 115 115" id="ic-poi-missing-details"><g fill="none" fill-rule="evenodd" transform="translate(-13 -13)"><rect width="102" height="102" x="13" y="13" fill="#E0F0F0" fill-rule="nonzero" rx="10" /><ellipse cx="63.83" cy="47.76" fill="#F5F5F5" fill-rule="nonzero" rx="29.21" ry="29.24" /><path fill="#FF444F" fill-rule="nonzero" d="M79.53 28.5c.82-1.23 1.66-2.43 2.49-3.61a29.07 29.07 0 00-18-6.36v4.37a24.7 24.7 0 0115.51 5.6z" /><ellipse cx="63.83" cy="47.76" fill="#FFF" fill-rule="nonzero" rx="24.85" ry="24.87" /><ellipse cx="63.91" cy="38.71" fill="#84ABAE" fill-rule="nonzero" rx="9.43" ry="9.44" /><path fill="#84ABAE" fill-rule="nonzero" d="M56.32 48.54s2.07 2.69 7.59 2.69 7.3-2.69 7.3-2.69 8.45 3.25 8.45 12.12c0 0-4.38 6.45-15.52 6.45s-16.22-6.45-16.22-6.45.32-9.56 8.4-12.12z" /><circle cx="105" cy="105" r="23" fill="#FF444F" fill-rule="nonzero" /><path fill="#FFF" fill-rule="nonzero" d="M102.68 113.58V113c0-1.11.68-2 2.32-2 1.64 0 2.32.86 2.32 2v.63c0 1.12-.68 2-2.32 2-1.64 0-2.32-.93-2.32-2.05zm1.54-6.66L103 99.53v-5a2.42 2.42 0 014.06 0v5l-1.2 7.39a.87.87 0 01-1.64 0z" /><rect width="44" height="6" x="34" y="98.5" fill="#F5F5F5" fill-rule="nonzero" rx="3" /><rect width="50" height="6" x="34" y="86" fill="#F5F5F5" fill-rule="nonzero" rx="3" /><path d="M0 0h128v128H0z" /></g></symbol><symbol viewBox="0 0 90 90" id="ic-poi-passport"><g fill="none" fill-rule="evenodd" transform="translate(-3 -3)"><circle cx="48" cy="48" r="44.25" fill="#E1F4F3" fill-rule="nonzero" /><path fill="#FFFDFF" fill-rule="nonzero" d="M27.645 78.945V21.533H65.73a2.625 2.625 0 012.625 2.624V76.32a2.625 2.625 0 01-2.625 2.625H27.645z" /><path fill="#F2F2F2" fill-rule="nonzero" d="M65.73 21.907a2.25 2.25 0 012.25 2.25V76.32a2.25 2.25 0 01-2.25 2.25H28.02V21.908h37.71zm0-.75H27.27V79.32h38.46a3 3 0 003-3V24.158a3 3 0 00-3-3z" /><path fill="#E3E4E3" fill-rule="nonzero" d="M27.27 21.157l27.908-8.677a3 3 0 013.892 2.865v5.812h-31.8z" /><rect width="27.442" height="5.393" x="34.275" y="65.662" fill="#E1F4F3" fill-rule="nonzero" rx="2.696" /><path d="M0 0h96v96H0z" /><circle cx="48" cy="40.545" r="12.922" stroke="#84ABAE" stroke-width="1.5" /><ellipse cx="48" cy="40.545" stroke="#84ABAE" stroke-width="1.5" rx="6.15" ry="12.922" /><path stroke="#84ABAE" stroke-width="1.5" d="M35.078 40.545h25.844m-23.647-7.2h21.45m-21.45 13.837h21.48M48 27.622V53.46" /></g></symbol><symbol viewBox="0 0 115 123" id="ic-poi-reupload"><g fill="none" fill-rule="evenodd"><path fill="#C6E4E4" fill-rule="nonzero" d="M85.84 117.37H13.65V.49h72.19a7.81 7.81 0 017.81 7.81v101.25a7.83 7.83 0 01-7.81 7.82z" /><path fill="#FFF" fill-rule="nonzero" d="M53.65 19.43c-10.908 0-19.75 8.842-19.75 19.75s8.842 19.75 19.75 19.75S73.4 50.088 73.4 39.18a19.75 19.75 0 00-19.75-19.75zm-18 20.28h7.83c.01 3.184.46 6.35 1.34 9.41h-6.2a18 18 0 01-3-9.41h.03zm18.84-12.78v-5.72c2.09.45 4 2.58 5.36 5.72h-5.36zm6 1.68A32.25 32.25 0 0162.16 38h-7.67v-9.39h6zm-7.71-7.4v5.72h-5.33c1.38-3.14 3.27-5.27 5.36-5.72h-.03zm0 7.4V38h-7.64a32.07 32.07 0 011.64-9.41l6 .02zM43.45 38h-7.8A18 18 0 0139 28.61h6A33.62 33.62 0 0043.45 38zm1.67 1.69h7.69v9.41h-6.24a33.21 33.21 0 01-1.45-9.39v-.02zm7.69 11.11v6.35c-2.23-.49-4.23-2.87-5.63-6.35h5.63zm1.68 6.35V50.8h5.63c-1.4 3.48-3.4 5.86-5.63 6.35zm0-8v-9.44h7.69a33 33 0 01-1.45 9.41l-6.24.03zm9.37-9.41h7.83a17.92 17.92 0 01-3 9.41h-6.2a34.7 34.7 0 001.37-9.44v.03zm0-1.69a34.53 34.53 0 00-1.52-9.41h5.94A18 18 0 0171.66 38l-7.8.05zm3-11.09h-5.14a16.29 16.29 0 00-3.13-5.11 18 18 0 018.29 5.08l-.02.03zm-18.15-5.14a16.29 16.29 0 00-3.13 5.11h-5.16a18 18 0 018.29-5.11zm-8.87 29h5.5a16.73 16.73 0 003.37 5.74 18.06 18.06 0 01-8.87-5.76v.02zm18.75 5.74A16.82 16.82 0 0062 50.8h5.5a18.07 18.07 0 01-8.91 5.74v.02z" /><rect width="61.09" height="10.48" x="23.38" y="75.41" fill="#FFF" fill-rule="nonzero" rx="4.17" /><rect width="100.94" height="61.52" x=".56" y="47.98" fill="#FFF" fill-rule="nonzero" rx="5.5" /><path fill="#F2F2F2" fill-rule="nonzero" d="M96 48.48a5 5 0 015 5V104a5 5 0 01-5 5H6.06a5 5 0 01-5-5V53.48a5 5 0 015-5H96zm0-1H6.06a6 6 0 00-6 6V104a6 6 0 006 6H96a6 6 0 006-6V53.48a6 6 0 00-6-6z" /><rect width="33.04" height="41.17" x="8.87" y="58.24" fill="#F2F2F2" fill-rule="nonzero" rx="3" /><rect width="33.27" height="5.05" x="51.03" y="67.37" fill="#E3E4E3" fill-rule="nonzero" rx="1.55" /><rect width="33.27" height="4.38" x="51.03" y="78.74" fill="#E3E4E3" fill-rule="nonzero" rx="1.35" /><rect width="33.27" height="4.38" x="51.03" y="85.56" fill="#E3E4E3" fill-rule="nonzero" rx="1.35" /><circle cx="25.45" cy="72.02" r="6.77" fill="#84ABAE" fill-rule="nonzero" /><path fill="#84ABAE" fill-rule="nonzero" d="M20 79.07S21.48 81 25.45 81s5.27-1.93 5.27-1.93 6.06 2.33 6.06 8.7c0 0-3.14 4.63-11.14 4.63S14 87.77 14 87.77s.19-6.86 6-8.7z" /><g transform="translate(72 80)"><circle cx="21.55" cy="21.55" r="21.45" fill="#FF6444" /><path fill="#FFF" d="M33.43 21.218L23.402 10.603A1.852 1.852 0 0022 10c-.565 0-1.027.201-1.386.603L10.585 21.218c-.39.413-.585.907-.585 1.483 0 .566.195 1.055.585 1.468l1.156 1.222c.37.413.832.62 1.386.62.555 0 1.017-.207 1.386-.62l4.53-4.777v11.479c0 .564.192 1.024.577 1.377.385.354.85.53 1.394.53h1.972a1.99 1.99 0 001.394-.53c.385-.353.578-.813.578-1.377V20.614l4.529 4.777c.37.413.831.62 1.386.62.544 0 1.012-.207 1.402-.62l1.155-1.222c.38-.424.57-.913.57-1.468 0-.565-.19-1.06-.57-1.483z" /></g></g></symbol></defs></svg>