<svg xmlns="http://www.w3.org/2000/svg" width="20" height="20"><g fill="none" fill-rule="evenodd"><circle cx="10" cy="10" r="10" fill="#C6E4E4" fill-rule="nonzero"/><path fill="#84ABAE" fill-rule="nonzero" d="M17.5 12.8s-.212-4.05-.212-4.4A3.35 3.35 0 0014 5H6.162a3.338 3.338 0 00-3.274 3.4c0 .213-.375 4.4-.375 4.4-.188 2.212 2.274 2.987 3.887 1.25l2.012-2.238h3.175l2.013 2.2c1.613 1.775 4.075.988 3.9-1.212z"/><rect width="1.25" height="3.75" x="6.25" y="6.25" fill="#C6E4E4" fill-rule="nonzero" rx=".5"/><path fill="#C6E4E4" fill-rule="nonzero" d="M8.75 8v.25a.5.5 0 01-.5.5H5.5a.5.5 0 01-.5-.5V8a.5.5 0 01.5-.5h2.75a.5.5 0 01.5.5z"/><path d="M0 0h20v20H0z"/><rect width="1.25" height="1.25" x="12.5" y="8.75" fill="#C6E4E4" fill-rule="nonzero" rx=".25"/><rect width="1.25" height="1.25" x="13.75" y="7.5" fill="#C6E4E4" fill-rule="nonzero" rx=".25"/><rect width="1.25" height="1.25" x="12.5" y="6.25" fill="#C6E4E4" fill-rule="nonzero" rx=".26"/><path fill="#C6E4E4" fill-rule="nonzero" d="M12.5 7.76v.73a.26.26 0 01-.26.26h-.73a.26.26 0 01-.26-.26v-.73a.26.26 0 01.26-.26h.73a.26.26 0 01.26.26z"/><circle cx="8.512" cy="11.488" r="1.012" fill="#84ABAE" fill-rule="nonzero"/><ellipse cx="11.475" cy="11.512" fill="#84ABAE" fill-rule="nonzero" rx="1.025" ry="1"/></g></svg>