<svg xmlns="http://www.w3.org/2000/svg" width="20" height="20"><g fill="none" fill-rule="evenodd"><circle cx="10" cy="10" r="10" fill="#C6E4E4" fill-rule="nonzero"/><path fill="#84ABAE" fill-rule="nonzero" d="M11.25 11.25h1.25l5 1.25v-1.25L11.25 7.5V5A4.487 4.487 0 0010 2.5 4.663 4.663 0 008.75 5v2.5L2.5 11.25v1.162l5-1.162h1.25V15l-2.5 1.425V17.5L10 16.25l3.75 1.25v-1.075L11.25 15v-3.75z"/><path fill="#C6E4E4" fill-rule="nonzero" d="M10.938 4.65v-.225c0-.188-.213-.6-.413-.637a2.775 2.775 0 00-.963 0c-.2 0-.374.45-.412.624-.006.08-.006.159 0 .238a2.1 2.1 0 011.787 0z"/><path d="M0 0h20v20H0z"/></g></svg>