<svg xmlns="http://www.w3.org/2000/svg" width="20" height="20"><g fill="none" fill-rule="evenodd"><circle fill="#C6E4E4" fill-rule="nonzero" cx="10" cy="10" r="10"/><path d="M17.5 12.8s-.212-4.05-.212-4.4A3.35 3.35 0 0014 5H6.162a3.338 3.338 0 00-3.274 3.4c0 .213-.375 4.4-.375 4.4-.188 2.212 2.274 2.987 3.887 1.25l2.012-2.238h3.175l2.013 2.2c1.613 1.775 4.075.988 3.9-1.212z" fill="#84ABAE" fill-rule="nonzero"/><rect fill="#C6E4E4" fill-rule="nonzero" x="6.25" y="6.25" width="1.25" height="3.75" rx=".5"/><path d="M8.75 8v.25a.5.5 0 01-.5.5H5.5a.5.5 0 01-.5-.5V8a.5.5 0 01.5-.5h2.75a.5.5 0 01.5.5z" fill="#C6E4E4" fill-rule="nonzero"/><path d="M0 0h20v20H0z"/><rect fill="#C6E4E4" fill-rule="nonzero" x="12.5" y="8.75" width="1.25" height="1.25" rx=".25"/><rect fill="#C6E4E4" fill-rule="nonzero" x="13.75" y="7.5" width="1.25" height="1.25" rx=".25"/><rect fill="#C6E4E4" fill-rule="nonzero" x="12.5" y="6.25" width="1.25" height="1.25" rx=".26"/><path d="M12.5 7.76v.73a.26.26 0 01-.26.26h-.73a.26.26 0 01-.26-.26v-.73a.26.26 0 01.26-.26h.73a.26.26 0 01.26.26z" fill="#C6E4E4" fill-rule="nonzero"/><circle fill="#84ABAE" fill-rule="nonzero" cx="8.512" cy="11.488" r="1.012"/><ellipse fill="#84ABAE" fill-rule="nonzero" cx="11.475" cy="11.512" rx="1.025" ry="1"/></g></svg>