<svg xmlns="http://www.w3.org/2000/svg" width="20" height="20"><g fill="none" fill-rule="evenodd"><circle cx="10" cy="10" r="10" fill="#C7E5E5" fill-rule="nonzero"/><path fill="#84ABAE" fill-rule="nonzero" d="M11.625 9.3a1.162 1.162 0 011.975 0l1.25 2.087 1.25 2.1a.513.513 0 010 .113 1.062 1.062 0 01-1.55 1.25l-1.25-.725a1.5 1.5 0 00-1.45 0M8.512 9.287a1.25 1.25 0 00-2.05 0l-1.25 2.1-1.25 2.1v.1c-.425.9.7 1.75 1.6 1.25l1.313-.724a1.587 1.587 0 011.512 0"/><path fill="#84ABAE" fill-rule="nonzero" d="M10.425 2.612A.913.913 0 0010 2.5a.9.9 0 00-.412.112C8.35 3.2 6.25 6.037 6.25 9.462A10 10 0 007.725 15h4.55a9.863 9.863 0 001.475-5.537c0-3.425-2.088-6.263-3.325-6.85z"/><ellipse cx="10" cy="7.425" fill="#C7E5E5" fill-rule="nonzero" rx="1.25" ry="1.288"/><path fill="#84ABAE" fill-rule="nonzero" d="M9.6 17.225l-.85-1.788a.475.475 0 01.075-.512l.8-1.013a.438.438 0 01.675 0l.8 1.013a.475.475 0 01.075.512l-.813 1.788a.425.425 0 01-.762 0z"/><path d="M0 0h20v20H0z"/></g></svg>