<svg xmlns="http://www.w3.org/2000/svg" width="24" height="24" viewBox="0 0 24 24">
    <g fill="none" fill-rule="nonzero">
        <circle cx="12" cy="12" r="12" fill="#F7931A"/>
        <path fill="#5C5C5C" d="M17.392 10.515c.235-1.572-.962-2.417-2.599-2.981l.531-2.13-1.296-.323-.518 2.074c-.34-.086-.69-.165-1.038-.245l.521-2.087-1.296-.323-.531 2.13c-.282-.065-.56-.128-.828-.196l.002-.006-1.788-.447-.345 1.385s.962.22.941.234c.526.131.62.478.604.754l-.604 2.427c.036.008.082.022.135.042l-.137-.034-.848 3.4c-.065.159-.227.398-.595.307.014.019-.942-.235-.942-.235l-.643 1.484 1.687.42c.314.08.621.162.924.239l-.537 2.154 1.296.323.53-2.13c.354.095.698.183 1.034.267l-.53 2.121 1.296.323.537-2.15c2.21.419 3.873.25 4.572-1.75.564-1.609-.027-2.538-1.19-3.143.847-.196 1.484-.753 1.655-1.904zm-2.963 4.153c-.4 1.61-3.11.74-3.99.522l.713-2.854c.879.22 3.697.654 3.277 2.332zm.402-4.176c-.366 1.464-2.622.72-3.353.537l.645-2.587c.731.182 3.088.522 2.708 2.05z"/>
    </g>
</svg>
