<svg xmlns="http://www.w3.org/2000/svg" width="24" height="24" viewBox="0 0 24 24">
    <g fill="none" fill-rule="nonzero">
        <path fill="#53AE94" d="M12 0c6.627 0 12 5.373 12 12s-5.373 12-12 12S0 18.629 0 12 5.372 0 12 0"/>
        <path fill="#5C5C5C" d="M13.481 10.401V8.616h4.082v-2.72H6.447v2.72h4.083V10.4c-3.318.152-5.813.81-5.813 1.596 0 .788 2.496 1.445 5.813 1.598v5.718h2.952v-5.718c3.312-.153 5.802-.81 5.802-1.596 0-.787-2.49-1.444-5.802-1.596m0 2.707v-.001c-.083.005-.511.03-1.464.03-.762 0-1.298-.02-1.487-.03v.002c-2.93-.13-5.119-.64-5.119-1.251 0-.611 2.188-1.12 5.12-1.251v1.993c.191.013.74.046 1.498.046.91 0 1.368-.038 1.452-.046v-1.993c2.926.13 5.11.641 5.11 1.25s-2.185 1.12-5.11 1.25"/>
    </g>
</svg>
